Coordinates
version=1
nRows=16
nColumns=42
inDegrees=yes

Units are S.I. units (second, meters, Newtons, ...)
If the header above contains a line with 'inDegrees', this indicates whether rotational values are in degrees (yes) or radians (no).

endheader
time	pelvis_tilt	pelvis_list	pelvis_rotation	pelvis_tx	pelvis_ty	pelvis_tz	hip_flexion_r	hip_adduction_r	hip_rotation_r	knee_angle_r	knee_adduction_r	knee_angle_r_beta	ankle_angle_r	subtalar_angle_r	mtp_angle_r	hip_flexion_l	hip_adduction_l	hip_rotation_l	knee_angle_l	knee_adduction_l	knee_angle_l_beta	ankle_angle_l	subtalar_angle_l	mtp_angle_l	lumbar_extension	lumbar_bending	lumbar_rotation	arm_flex_r	arm_add_r	arm_rot_r	elbow_flex_r	pro_sup_r	wrist_flex_r	wrist_dev_r	arm_flex_l	arm_add_l	arm_rot_l	elbow_flex_l	pro_sup_l	wrist_flex_l	wrist_dev_l
      2.02000000	      1.29757099	     -2.78166820	     -8.15087529	      1.07434330	      0.94338990	     -0.09446837	    -16.69575408	     -1.32247452	     -2.43239922	     13.53751027	      3.91976073	      0.23627413	     19.75285175	     22.32559602	     -7.50719355	     24.52451972	     -6.98732960	    -19.24525885	     14.72773448	     -2.47042810	      0.25704746	      1.29668206	     17.18501042	     -7.50719355	     -9.84073124	      1.11313620	      9.15446954	      8.30065082	    -19.32531993	     16.18513601	     45.83112459	     90.00000001	      0.00000000	      0.00000000	    -16.37318828	    -11.56231150	      6.21637106	     25.67190308	     90.00000001	      0.00000000	      0.00000000
      2.03000000	      1.25636579	     -2.62884506	     -8.31609830	      1.08661336	      0.94320936	     -0.09495655	    -17.02930693	     -1.67215727	     -2.05379323	     14.12873953	      3.82934599	      0.24659302	     19.38132474	     22.31479601	     -7.50714728	     24.37265479	     -6.72229330	    -18.70639638	     15.53442375	     -2.62056652	      0.27112684	      0.85286005	     17.08495855	     -7.50714728	     -9.75935054	      0.70855803	      9.25850829	      8.05358638	    -19.20755963	     16.24747958	     45.76903479	     90.00000001	      0.00000000	      0.00000000	    -16.40962642	    -11.66591811	      6.16850228	     25.67746384	     90.00000001	      0.00000000	      0.00000000
      2.04000000	      1.20490549	     -2.44669391	     -8.44511906	      1.09897183	      0.94337863	     -0.09549205	    -17.29064114	     -2.02567892	     -1.69154079	     14.79277426	      3.73498604	      0.25818262	     18.89802237	     22.26472629	     -7.50710695	     24.19955498	     -6.42815374	    -18.28462615	     16.28760941	     -2.76715389	      0.28427241	      0.39420027	     16.95339516	     -7.50710695	     -9.66383749	      0.26072863	      9.29747537	      7.72848430	    -19.06452562	     16.32000599	     45.67963183	     90.00000001	      0.00000000	      0.00000000	    -16.41942676	    -11.76297981	      6.13083127	     25.68441214	     90.00000001	      0.00000000	      0.00000000
      2.05000000	      1.10132895	     -1.80814428	     -8.60866538	      1.11120108	      0.94384128	     -0.09656027	    -17.04495586	     -3.13636386	     -2.12504573	     16.18384378	      3.99354370	      0.28246136	     17.03152864	     21.74641667	     -7.50697850	     24.16133329	     -5.65958001	    -18.55814944	     17.04524011	     -3.02482906	      0.29749556	     -1.08944555	     15.67631511	     -7.50697850	     -9.48132020	     -0.63131793	      9.36988831	      7.50576282	    -18.96571232	     16.39282852	     45.40425130	     90.00000001	      0.00000000	      0.00000000	    -16.09739381	    -11.88388321	      6.03224265	     25.50949539	     90.00000001	      0.00000000	      0.00000000
      2.06000000	      1.02001665	     -1.45229012	     -8.64749598	      1.12347467	      0.94466607	     -0.09755843	    -16.89532967	     -3.76434993	     -1.99368415	     17.43855556	      4.09177001	      0.30436021	     15.89182865	     21.54394141	     -7.50691725	     23.93773780	     -5.13155685	    -18.05169662	     17.65295798	     -3.06544799	      0.30810224	     -1.47789773	     15.12456433	     -7.50691725	     -9.37266018	     -1.20803796	      9.34496572	      7.19305588	    -18.83246936	     16.44836544	     45.13357133	     90.00000001	      0.00000000	      0.00000000	    -15.81102426	    -11.97649080	      5.95713444	     25.36305428	     90.00000001	      0.00000000	      0.00000000
      2.07000000	      0.77400564	     -0.93217818	     -8.62690483	      1.13562195	      0.94572643	     -0.09866974	    -16.20504783	     -4.49613399	     -2.54861847	     19.27440247	      3.91732123	      0.33640178	     14.33049643	     21.72166654	     -7.50640104	     23.65129965	     -4.25848413	    -16.40467528	     17.84105672	     -2.88494443	      0.31138518	     -2.17405301	     11.90445412	     -7.50640104	     -9.06229873	     -1.93708116	      9.18984750	      6.87072767	    -18.43274233	     16.13495857	     44.47141138	     90.00000001	      0.00000000	      0.00000000	    -15.30009237	    -11.92729268	      5.28999209	     24.63198674	     90.00000001	      0.00000000	      0.00000000
      2.08000000	      0.64950012	     -0.54958831	     -8.59769360	      1.14791469	      0.94705558	     -0.09987868	    -15.61449164	     -5.12347232	     -2.51832504	     21.12174208	      3.93730562	      0.36864394	     12.42055201	     21.17955098	     -7.50631781	     23.42842909	     -3.69161536	    -16.24660349	     18.43389374	     -2.97061595	      0.32173214	     -1.91830958	     11.72967754	     -7.50631781	     -8.91364121	     -2.50505023	      9.07607582	      6.39540400	    -18.29990861	     16.14846430	     44.23848847	     90.00000001	      0.00000000	      0.00000000	    -14.99514542	    -12.03147543	      5.18267941	     24.67355598	     90.00000001	      0.00000000	      0.00000000
      2.09000000	      0.61284146	     -0.25842563	     -8.51274050	      1.16010433	      0.94866309	     -0.10120227	    -14.98371767	     -5.68073454	     -2.22286849	     23.13898621	      4.08478113	      0.40385150	     10.59125498	     20.78686197	     -7.50626865	     23.03049967	     -3.20714623	    -15.97547806	     18.96338194	     -2.94349668	      0.33097345	     -1.56336829	     11.63453696	     -7.50626865	     -8.90553695	     -2.95631722	      8.88415607	      6.00076408	    -18.19767353	     16.13899107	     43.99310875	     90.00000001	      0.00000000	      0.00000000	    -14.59648178	    -12.10933482	      5.12895423	     24.72971006	     90.00000001	      0.00000000	      0.00000000
      2.10000000	      0.34352423	      0.18707994	     -8.35545738	      1.17223937	      0.95017973	     -0.10269078	    -13.74461033	     -6.32124047	     -2.52461010	     25.68300146	      3.90968291	      0.44825294	      7.85095799	     19.99973816	     -7.50617657	     22.81547754	     -2.48351244	    -15.79325127	     19.28967857	     -3.05160169	      0.33666840	     -0.95930245	     11.35736025	     -7.50617657	     -8.60334841	     -3.52165333	      8.63363495	      5.42437553	    -17.97344951	     16.06036644	     43.57381148	     90.00000001	      0.00000000	      0.00000000	    -14.18007278	    -12.22271269	      5.03770392	     24.67941087	     90.00000001	      0.00000000	      0.00000000
      2.11000000	      0.20341674	      0.52566150	     -8.19107818	      1.18420650	      0.95187393	     -0.10426230	    -12.53419692	     -6.89243408	     -2.35191266	     28.29017496	      3.90478296	      0.49375670	      5.43109039	     19.41463382	     -7.50609233	     22.34663565	     -1.87836178	    -15.55778230	     19.47735079	     -3.03544102	      0.33994390	     -0.33913286	     11.22271027	     -7.50609233	     -8.48782691	     -3.95817089	      8.34732834	      4.94190263	    -17.79888689	     15.95451660	     43.16941638	     90.00000001	      0.00000000	      0.00000000	    -13.68896222	    -12.30144612	      4.96570611	     24.70054654	     90.00000001	      0.00000000	      0.00000000
      2.12000000	      0.04998612	      0.86481671	     -7.97312919	      1.19599187	      0.95355513	     -0.10593203	    -11.14573813	     -7.44346755	     -2.08066603	     31.04924645	      3.92555938	      0.54191158	      3.01384498	     18.70621943	     -7.50599439	     21.82497256	     -1.24926329	    -15.35741519	     19.54197683	     -3.01457680	      0.34107184	      0.29871220	     11.17646301	     -7.50599439	     -8.38448245	     -4.36336685	      7.97051321	      4.48525651	    -17.61443798	     15.81960218	     42.72572985	     90.00000001	      0.00000000	      0.00000000	    -13.15942899	    -12.37074376	      4.89777506	     24.74959683	     90.00000001	      0.00000000	      0.00000000
      2.13000000	     -0.09461865	      1.16146053	     -7.74163521	      1.20756168	      0.95518658	     -0.10758306	     -9.63076512	     -7.91783196	     -1.55457665	     33.89082316	      4.00242430	      0.59150645	      0.78230109	     17.72467943	     -7.50583382	     21.22893377	     -0.68354416	    -15.24785112	     19.47839016	     -2.96808045	      0.33996204	      0.90604630	     11.24201851	     -7.50583382	     -8.31139661	     -4.71203545	      7.53894369	      4.11715244	    -17.37418119	     15.61414864	     42.18886035	     90.00000001	      0.00000000	      0.00000000	    -12.59841331	    -12.46240372	      4.81366731	     24.81631909	     90.00000001	      0.00000000	      0.00000000
      2.14000000	     -0.23527774	      1.44023467	     -7.54256649	      1.21900717	      0.95675700	     -0.10925151	     -8.05328498	     -8.35906753	     -0.51729825	     36.68137455	      4.34228587	      0.64021076	     -0.90053010	     16.34571291	     -7.50551254	     20.56308001	     -0.13314804	    -15.27351764	     19.28990332	     -2.97344561	      0.33667233	      1.64607239	     11.62109507	     -7.50551254	     -8.24931833	     -5.01027729	      7.16428103	      3.71724631	    -17.13725555	     15.38487842	     41.55772439	     90.00000001	      0.00000000	      0.00000000	    -12.00496963	    -12.52047885	      4.74131684	     24.99030688	     90.00000001	      0.00000000	      0.00000000
      2.15000000	     -0.36549150	      1.70500084	     -7.33724158	      1.23019079	      0.95817846	     -0.11089756	     -6.35314519	     -8.77026735	      0.42206591	     39.53603022	      4.66208058	      0.69003390	     -1.99152735	     15.25045284	     -7.50529850	     19.86071234	      0.37132267	    -15.43106857	     19.02047162	     -2.95383849	      0.33196985	      2.32110827	     12.14029888	     -7.50529850	     -8.21922902	     -5.27777382	      6.73983794	      3.33998966	    -17.03775622	     15.42806893	     41.09839478	     90.00000001	      0.00000000	      0.00000000	    -11.39139691	    -12.61803670	      4.77859027	     25.26366267	     90.00000001	      0.00000000	      0.00000000
      2.16000000	     -0.48177895	      1.93857344	     -7.15422255	      1.24122688	      0.95950123	     -0.11245640	     -4.59538041	     -9.11182319	      1.32817725	     42.32420159	      4.94783997	      0.73869667	     -2.33855185	     14.61606044	     -7.50520199	     19.06374273	      0.84458402	    -15.45564772	     18.61139715	     -2.87800096	      0.32483016	      3.03671003	     12.52269642	     -7.50520199	     -8.20862862	     -5.50472449	      6.34865054	      2.90117119	    -16.96535782	     15.50962446	     40.78864166	     90.00000001	      0.00000000	      0.00000000	    -10.75679419	    -12.73329970	      4.81338324	     25.62190980	     90.00000001	      0.00000000	      0.00000000
      2.17000000	     -0.41382088	      1.93381089	     -6.91386890	      1.25207501	      0.96096252	     -0.11383290	     -3.07408164	     -9.15538628	      2.13707329	     44.88109209	      5.23793218	      0.78332283	     -2.33028865	     14.15095444	     -7.50513586	     18.10459139	      1.02367430	    -15.46414670	     18.33897548	     -2.74126357	      0.32007550	      3.47602802	     12.84429206	     -7.50513586	     -8.47152779	     -5.48241864	      5.78843985	      2.62379561	    -16.93270557	     15.56147404	     40.55889868	     90.00000001	      0.00000000	      0.00000000	    -10.07984603	    -12.80981839	      4.85706845	     25.98322564	     90.00000001	      0.00000000	      0.00000000
